<svg xmlns="http://www.w3.org/2000/svg" width="25.286" height="23.2" viewBox="0 0 25.286 23.2">
  <path id="Path_43" data-name="Path 43" d="M20.333,3a7.571,7.571,0,0,0-5.689,2.642A7.571,7.571,0,0,0,8.954,3,6.886,6.886,0,0,0,2,9.954c0,4.779,4.3,8.673,10.81,14.59L14.643,26.2l1.833-1.669c6.511-5.9,10.81-9.8,10.81-14.578A6.886,6.886,0,0,0,20.333,3ZM14.77,22.66l-.126.126-.126-.126C8.5,17.211,4.529,13.608,4.529,9.954A4.321,4.321,0,0,1,8.954,5.529a4.943,4.943,0,0,1,4.514,2.984h2.364a4.911,4.911,0,0,1,4.5-2.984,4.321,4.321,0,0,1,4.425,4.425C24.758,13.608,20.788,17.211,14.77,22.66Z" transform="translate(-2 -3)" fill="#c4acac"/>
</svg>
